# xmcd
# Copyright (C) 1995-1998 Ti Kan
#
# Track frame offsets:
#       150
#       10579
#       24742
#       31512
#       39093
#       49535
#       60289
#       65392
#       79825
#       88133
#       98772
#       109357
#       117457
#       132575
#       144128
#       151897
#       158705
#       164934
#
# Disc length: 2305 seconds
#
# Revision: 0
# Processed by: cddbd v1.5.1PL2 Copyright (c) Steve Scherf et al.
# Submitted via: CD-Transfer v1.0
#
DISCID=dd08ff12
DTITLE=Kindersinggruppe Afing - Tiggetitagg Der Tausendfüssler
DYEAR=06
DGENRE=
TTITLE0=Tiggetitagg Der Tausendfüssler
TTITLE1=Der Papagei Ein Vogel Ist
TTITLE2=I Hon Drhoam A Katzele
TTITLE3=Mh, Mh, Sagt Der Grüne Frosch
TTITLE4=Wenn Die Sonne Ihren Strahlen
TTITLE5=Ich Mag Die Blumen
TTITLE6=Die Feuerwehr
TTITLE7=Märchenraten
TTITLE8=Papa
TTITLE9=Mama
TTITLE10=Alles Gute Zum Geburtstag
TTITLE11=Du Bist Immer Da
TTITLE12=Sag Wo Sind Die Farben Nur
TTITLE13=Seht Unseren Laternenbaum
TTITLE14=In Meiner Latern
TTITLE15=Der Winter Kimp
TTITLE16=Du Liebr Nikolaus
TTITLE17=Es Hat Sich Halt Eröffnet
EXTD=
EXTT0=
EXTT1=
EXTT2=
EXTT3=
EXTT4=
EXTT5=
EXTT6=
EXTT7=
EXTT8=
EXTT9=
EXTT10=
EXTT11=
EXTT12=
EXTT13=
EXTT14=
EXTT15=
EXTT16=
EXTT17=
PLAYORDER=
